<?xml version="1.0" encoding="utf-8"?>
<svg version="1.1" xmlns:xlink="http://www.w3.org/1999/xlink" width="375px" height="174px" xmlns="http://www.w3.org/2000/svg">
  <g transform="matrix(1 0 0 1 -25 -89 )">
    <path d="M 25 89  L 400 89  L 400 263  L 25 263  L 25 89  " fill-rule="nonzero" fill="#cccccc" stroke="none" />
    <path d="M 37 101  L 388 101  L 388 251  L 37 251  L 37 101  " fill-rule="nonzero" fill="#ffffff" stroke="none" />
    <path d="M 233.05 141.2  C 225.742 141.2  220 135.458  220 128.15  C 220 120.842  225.742 115.1  233.05 115.1  C 240.358 115.1  246.1 120.842  246.1 128.15  C 246.1 135.458  240.358 141.2  233.05 141.2  " fill-rule="nonzero" fill="#cccccc" stroke="none" />
    <path d="M 42 247  L 42 169.45  L 127.5 134.2  L 247.2 207.7456  L 315.6 155.35  L 384 207.7456  L 384 247  L 42 247  " fill-rule="nonzero" fill="#169bd5" stroke="none" />
  </g>
</svg>