<?xml version="1.0" encoding="utf-8"?>
<svg version="1.1" xmlns:xlink="http://www.w3.org/1999/xlink" width="69px" height="69px" xmlns="http://www.w3.org/2000/svg">
  <g transform="matrix(1 0 0 1 -178 -202 )">
    <path d="M 212.5 202  C 231.82 202  247 217.18  247 236.5  C 247 255.82  231.82 271  212.5 271  C 193.18 271  178 255.82  178 236.5  C 178 217.18  193.18 202  212.5 202  Z " fill-rule="nonzero" fill="#ffffff" stroke="none" />
    <path d="M 212.5 202.5  C 231.54 202.5  246.5 217.46  246.5 236.5  C 246.5 255.54  231.54 270.5  212.5 270.5  C 193.46 270.5  178.5 255.54  178.5 236.5  C 178.5 217.46  193.46 202.5  212.5 202.5  Z " stroke-width="1" stroke="#797979" fill="none" />
  </g>
</svg>