<?xml version="1.0" encoding="utf-8"?>
<svg version="1.1" xmlns:xlink="http://www.w3.org/1999/xlink" width="40px" height="50px" xmlns="http://www.w3.org/2000/svg">
  <defs>
    <filter x="362px" y="250px" width="40px" height="50px" filterUnits="userSpaceOnUse" id="filter2">
      <feOffset dx="1" dy="1" in="SourceAlpha" result="shadowOffsetInner" />
      <feGaussianBlur stdDeviation="2.5" in="shadowOffsetInner" result="shadowGaussian" />
      <feComposite in2="shadowGaussian" operator="atop" in="SourceAlpha" result="shadowComposite" />
      <feColorMatrix type="matrix" values="0 0 0 0 0  0 0 0 0 0  0 0 0 0 0  0 0 0 0.698039215686274 0  " in="shadowComposite" />
    </filter>
    <g id="widget3">
      <path d="M 381 293.036928468354  C 375.2 283.40734059591  366.5 277.629587872444  366.5 268  C 366.5 262.985714285714  369.4 254.5  381 254.5  C 392.6 254.5  395.5 262.985714285714  395.5 268  C 395.5 277.629587872444  386.8 283.40734059591  381 293.036928468354  Z " fill-rule="nonzero" fill="#009dd9" stroke="none" />
      <path d="M 381 294  C 375 284  366 278  366 268  C 366 262.8  369 254  381 254  C 393 254  396 262.8  396 268  C 396 278  387 284  381 294  Z M 381 292.073856936707  C 386.6 282.81468119182  395 277.259175744887  395 268  C 395 263.171428571429  392.2 255  381 255  C 369.8 255  367 263.171428571429  367 268  C 367 277.259175744887  375.4 282.81468119182  381 292.073856936707  Z " fill-rule="nonzero" fill="#ffffff" stroke="none" />
    </g>
  </defs>
  <g transform="matrix(1 0 0 1 -362 -250 )">
    <use xlink:href="#widget3" filter="url(#filter2)" />
    <use xlink:href="#widget3" />
  </g>
</svg>